<svg width="135" height="25" viewBox="0 0 135 25" fill="none" xmlns="http://www.w3.org/2000/svg">
<path d="M134.735 13.3943C132.266 13.5262 129.807 13.6393 127.357 13.7335C124.906 13.8089 122.447 13.8937 119.978 13.988C119.959 14.0633 119.95 14.1387 119.95 14.2141C119.95 14.2895 119.95 14.3649 119.95 14.4403C119.95 15.0811 120.091 15.5711 120.374 15.9103C120.675 16.2496 121.043 16.4946 121.476 16.6453C121.91 16.7773 122.39 16.8527 122.918 16.8715C123.446 16.8904 123.936 16.8998 124.388 16.8998C125.651 16.8998 126.914 16.8621 128.176 16.7867C129.439 16.6925 130.711 16.5982 131.993 16.504L132.219 20.9989C130.975 21.0555 129.731 21.1026 128.487 21.1403C127.262 21.178 126.028 21.1968 124.784 21.1968C124.52 21.1968 124.03 21.1968 123.314 21.1968C122.617 21.178 121.863 21.1497 121.052 21.112C120.261 21.0555 119.516 20.9895 118.819 20.9141C118.122 20.8387 117.66 20.7351 117.434 20.6031C116.85 20.2639 116.388 19.8304 116.049 19.3027C115.728 18.775 115.474 18.2002 115.285 17.5783C115.116 16.9563 114.993 16.325 114.918 15.6842C114.861 15.0245 114.823 14.3932 114.805 13.7901C114.786 13.6958 114.776 13.6016 114.776 13.5074C114.795 13.3943 114.805 13.2906 114.805 13.1964C114.805 12.1975 114.908 11.274 115.116 10.4259C115.342 9.55899 115.747 8.72032 116.331 7.90991C116.727 7.34451 117.311 6.87334 118.084 6.49641C118.857 6.11947 119.695 5.82735 120.6 5.62004C121.505 5.39388 122.409 5.2431 123.314 5.16772C124.219 5.07348 125.001 5.02637 125.66 5.02637C126.245 5.02637 126.961 5.08291 127.809 5.19599C128.657 5.29022 129.496 5.45984 130.325 5.70485C131.173 5.94985 131.936 6.27025 132.615 6.66603C133.293 7.04296 133.755 7.51413 134 8.07953C134.038 8.19261 134.075 8.3905 134.113 8.6732C134.17 8.93705 134.226 9.24802 134.283 9.60611C134.339 9.94535 134.386 10.3129 134.424 10.7086C134.481 11.1044 134.528 11.4814 134.565 11.8394C134.603 12.1975 134.631 12.5179 134.65 12.8006C134.688 13.0833 134.716 13.2812 134.735 13.3943ZM130.89 11.3306C130.777 10.5013 130.56 9.85112 130.24 9.37995C129.939 8.88994 129.552 8.53185 129.081 8.30569C128.629 8.06068 128.101 7.90991 127.498 7.85337C126.914 7.77798 126.282 7.74029 125.604 7.74029C125.378 7.74029 125.095 7.74971 124.756 7.76856C124.416 7.76856 124.077 7.79683 123.738 7.85337C123.399 7.89106 123.078 7.95703 122.777 8.05126C122.475 8.14549 122.24 8.27742 122.07 8.44704C121.938 8.56012 121.825 8.72032 121.731 8.92763C121.655 9.1161 121.589 9.32341 121.533 9.54957C121.476 9.77573 121.429 10.0019 121.392 10.2281C121.373 10.4354 121.363 10.6144 121.363 10.7652C121.363 11.0667 121.392 11.3589 121.448 11.6416L130.89 11.3306Z" fill="#333333"/>
<path d="M115.087 8.30552L107.822 13.5637C107.878 13.7899 107.991 14.1574 108.161 14.6663C108.331 15.1563 108.519 15.6746 108.726 16.2211C108.934 16.7488 109.15 17.2483 109.377 17.7194C109.622 18.1718 109.848 18.4639 110.055 18.5958C110.187 18.69 110.357 18.7654 110.564 18.822C110.771 18.8785 110.979 18.9256 111.186 18.9633C111.412 19.001 111.629 19.0293 111.836 19.0481C112.062 19.0481 112.251 19.0481 112.401 19.0481C112.665 19.0481 112.939 19.0387 113.221 19.0199C113.504 19.001 113.777 18.9727 114.041 18.935C114.003 19.1801 113.975 19.4345 113.956 19.6983C113.937 19.9433 113.928 20.1978 113.928 20.4616C113.928 20.9139 113.937 21.3663 113.956 21.8186C113.975 22.2709 113.985 22.7138 113.985 23.1473C113.853 23.1661 113.617 23.1944 113.278 23.2321C112.957 23.2509 112.581 23.2792 112.147 23.3169C111.732 23.3357 111.29 23.364 110.818 23.4017C110.347 23.4394 109.904 23.4771 109.49 23.5148C109.094 23.5336 108.745 23.5431 108.444 23.5431C108.161 23.5431 107.982 23.5242 107.907 23.4865C107.586 23.3357 107.275 23.1756 106.974 23.0059C106.672 22.8363 106.418 22.6007 106.21 22.2992C106.116 22.1673 105.956 21.8092 105.73 21.2249C105.522 20.6407 105.296 19.9999 105.051 19.3026C104.825 18.6052 104.608 17.955 104.401 17.3519C104.213 16.7488 104.09 16.3625 104.034 16.1929L101.32 17.9456V22.8646L95.7222 23.3452C95.8352 20.7066 95.9578 18.0869 96.0897 15.4861C96.2216 12.8664 96.2876 10.2279 96.2876 7.5705C96.2876 6.76009 96.2781 5.95911 96.2593 5.16755C96.2593 4.37599 96.2499 3.56558 96.231 2.73633C97.0037 2.8871 97.767 2.98133 98.5209 3.01903C99.2936 3.05672 100.066 3.11326 100.839 3.18865V13.7616C102.309 12.857 103.741 11.9335 105.136 10.9912C106.55 10.0488 107.916 9.01227 109.235 7.88147C110.234 7.99455 111.205 8.07936 112.147 8.1359C113.108 8.19244 114.088 8.24898 115.087 8.30552Z" fill="#333333"/>
<path d="M91.6516 4.96978C91.6516 5.34671 91.5668 5.7048 91.3971 6.04404C91.2464 6.36444 91.0296 6.64714 90.7469 6.89214C90.4831 7.13715 90.1815 7.33504 89.8423 7.48581C89.503 7.61774 89.1638 7.6837 88.8246 7.6837C88.4476 7.6837 88.0895 7.59889 87.7503 7.42927C87.4299 7.25965 87.1472 7.04292 86.9022 6.77906C86.6572 6.51521 86.4687 6.21366 86.3368 5.87442C86.2049 5.51634 86.1389 5.15825 86.1389 4.80016C86.1389 4.44207 86.2049 4.11226 86.3368 3.81071C86.4876 3.49032 86.676 3.21704 86.9022 2.99088C87.1472 2.76472 87.4205 2.58568 87.722 2.45375C88.0424 2.32182 88.3817 2.25586 88.7398 2.25586C89.0978 2.25586 89.4465 2.33125 89.7857 2.48202C90.1438 2.61395 90.4548 2.81184 90.7187 3.07569C91.0014 3.3207 91.2275 3.61282 91.3971 3.95206C91.5668 4.27245 91.6516 4.61169 91.6516 4.96978ZM92.8106 9.77568C92.7164 10.7746 92.641 11.764 92.5845 12.744C92.5279 13.7241 92.4714 14.7041 92.4149 15.6841C92.3395 16.8338 92.2075 17.974 92.0191 19.1048C91.8495 20.2356 91.6516 21.3664 91.4254 22.4972L87.1001 22.9495C87.1001 22.3464 87.1001 21.7528 87.1001 21.1685C87.1189 20.5843 87.1284 19.9906 87.1284 19.3875C87.1284 17.8421 87.1001 16.2966 87.0436 14.7512C86.987 13.2058 86.9305 11.6604 86.8739 10.1149C87.8728 10.0772 88.8528 10.0207 89.814 9.9453C90.794 9.86992 91.7929 9.81338 92.8106 9.77568Z" fill="#333333"/>
<path d="M84.2445 12.8571C84.2445 13.5545 84.1974 14.2612 84.1031 14.9774C84.0278 15.6747 83.9429 16.3721 83.8487 17.0694C83.6979 18.2944 83.5283 19.51 83.3399 20.7162C83.1514 21.9036 82.9629 23.1097 82.7745 24.3348C81.851 24.3536 80.9463 24.3913 80.0605 24.4479C79.1747 24.5044 78.2795 24.5704 77.3749 24.6457C77.3749 23.2699 77.3749 21.913 77.3749 20.5749C77.3749 19.2179 77.3466 17.8609 77.2901 16.504C77.2901 16.2401 77.2806 15.9009 77.2618 15.4863C77.2618 15.0716 77.2241 14.7324 77.1487 14.4685C77.0356 14.0351 76.8943 13.7429 76.7247 13.5922C76.555 13.4225 76.2252 13.3377 75.7352 13.3377C75.396 13.3377 75.0002 13.3754 74.5479 13.4508C74.0956 13.5262 73.6338 13.6204 73.1626 13.7335C72.6915 13.8466 72.2392 13.9785 71.8057 14.1293C71.3911 14.2612 71.0424 14.4026 70.7597 14.5533C70.6089 16.0799 70.4205 17.5971 70.1943 19.1048C69.987 20.6126 69.8551 22.1391 69.7985 23.6846L65.8124 23.4867C65.6051 20.0943 65.4072 16.7207 65.2188 13.366C65.0303 9.99245 64.8513 6.60947 64.6816 3.21707L70.901 2.82129C70.8634 4.06517 70.8257 5.30905 70.788 6.55293C70.7503 7.77797 70.7126 9.01242 70.6749 10.2563C71.033 9.95476 71.4382 9.7286 71.8905 9.57782C72.3428 9.4082 72.8046 9.29512 73.2757 9.23858C73.7657 9.18204 74.2558 9.15377 74.7458 9.15377C75.2358 9.15377 75.7069 9.15377 76.1593 9.15377C76.8377 9.15377 77.601 9.18204 78.4491 9.23858C79.3161 9.27628 80.1359 9.4082 80.9086 9.63436C81.7002 9.84168 82.3975 10.1809 83.0006 10.6521C83.6037 11.1233 84.0089 11.7829 84.2162 12.631C84.2351 12.6687 84.2445 12.7064 84.2445 12.7441C84.2445 12.7818 84.2445 12.8195 84.2445 12.8571Z" fill="#333333"/>
<path d="M57.7328 3.92953C57.7328 4.64571 57.5726 5.33361 57.2522 5.99324C56.9319 6.63403 56.602 7.25597 56.2628 7.85907H53.1531C53.3416 7.6329 53.5395 7.40674 53.7468 7.18058C53.9541 6.93558 54.1425 6.69057 54.3122 6.44556C54.4818 6.18171 54.6137 5.90843 54.7079 5.62573C54.821 5.34303 54.8776 5.04149 54.8776 4.72109V4.41012L52.1919 4.35358C52.0788 4.08973 51.9563 3.74107 51.8244 3.30759C51.7113 2.85527 51.6548 2.47834 51.6548 2.17679C51.6548 1.79986 51.749 1.42292 51.9375 1.04599C52.126 0.65021 52.3521 0.301547 52.616 0L57.0826 0.05654C57.2899 0.67848 57.4501 1.31927 57.5632 1.9789C57.6763 2.61969 57.7328 3.2699 57.7328 3.92953Z" fill="#333333"/>
<path d="M50.4055 8.30552L43.1401 13.5637C43.1966 13.7899 43.3097 14.1574 43.4793 14.6663C43.649 15.1563 43.8374 15.6746 44.0447 16.2211C44.252 16.7488 44.4688 17.2483 44.6949 17.7194C44.94 18.1718 45.1661 18.4639 45.3734 18.5958C45.5054 18.69 45.675 18.7654 45.8823 18.822C46.0896 18.8785 46.2969 18.9256 46.5042 18.9633C46.7304 19.001 46.9471 19.0293 47.1544 19.0481C47.3806 19.0481 47.5691 19.0481 47.7198 19.0481C47.9837 19.0481 48.257 19.0387 48.5397 19.0199C48.8224 19.001 49.0956 18.9727 49.3595 18.935C49.3218 19.1801 49.2935 19.4345 49.2747 19.6983C49.2558 19.9433 49.2464 20.1978 49.2464 20.4616C49.2464 20.9139 49.2558 21.3663 49.2747 21.8186C49.2935 22.2709 49.303 22.7138 49.303 23.1473C49.171 23.1661 48.9354 23.1944 48.5962 23.2321C48.2758 23.2509 47.8989 23.2792 47.4654 23.3169C47.0508 23.3357 46.6079 23.364 46.1367 23.4017C45.6656 23.4394 45.2227 23.4771 44.808 23.5148C44.4122 23.5336 44.0636 23.5431 43.762 23.5431C43.4793 23.5431 43.3003 23.5242 43.2249 23.4865C42.9045 23.3357 42.5935 23.1756 42.292 23.0059C41.9904 22.8363 41.736 22.6007 41.5287 22.2992C41.4345 22.1673 41.2743 21.8092 41.0481 21.2249C40.8408 20.6407 40.6146 19.9999 40.3696 19.3026C40.1435 18.6052 39.9267 17.955 39.7194 17.3519C39.531 16.7488 39.4085 16.3625 39.3519 16.1929L36.638 17.9456V22.8646L31.0405 23.3452C31.1536 20.7066 31.2761 18.0869 31.408 15.4861C31.54 12.8664 31.6059 10.2279 31.6059 7.5705C31.6059 6.76009 31.5965 5.95911 31.5777 5.16755C31.5777 4.37599 31.5682 3.56558 31.5494 2.73633C32.3221 2.8871 33.0854 2.98133 33.8393 3.01903C34.612 3.05672 35.3847 3.11326 36.1574 3.18865V13.7616C37.6274 12.857 39.0598 11.9335 40.4544 10.9912C41.8679 10.0488 43.2343 9.01227 44.5536 7.88147C45.5525 7.99455 46.5231 8.07936 47.4654 8.1359C48.4266 8.19244 49.4066 8.24898 50.4055 8.30552Z" fill="#333333"/>
<path d="M26.9699 4.96978C26.9699 5.34671 26.8851 5.7048 26.7155 6.04404C26.5647 6.36444 26.348 6.64714 26.0653 6.89214C25.8014 7.13715 25.4999 7.33504 25.1606 7.48581C24.8214 7.61774 24.4822 7.6837 24.1429 7.6837C23.766 7.6837 23.4079 7.59889 23.0687 7.42927C22.7483 7.25965 22.4656 7.04292 22.2206 6.77906C21.9756 6.51521 21.7871 6.21366 21.6552 5.87442C21.5232 5.51634 21.4573 5.15825 21.4573 4.80016C21.4573 4.44207 21.5232 4.11226 21.6552 3.81071C21.8059 3.49032 21.9944 3.21704 22.2206 2.99088C22.4656 2.76472 22.7388 2.58568 23.0404 2.45375C23.3608 2.32182 23.7 2.25586 24.0581 2.25586C24.4162 2.25586 24.7649 2.33125 25.1041 2.48202C25.4622 2.61395 25.7732 2.81184 26.037 3.07569C26.3197 3.3207 26.5459 3.61282 26.7155 3.95206C26.8851 4.27245 26.9699 4.61169 26.9699 4.96978ZM28.129 9.77568C28.0348 10.7746 27.9594 11.764 27.9028 12.744C27.8463 13.7241 27.7898 14.7041 27.7332 15.6841C27.6578 16.8338 27.5259 17.974 27.3374 19.1048C27.1678 20.2356 26.9699 21.3664 26.7438 22.4972L22.4185 22.9495C22.4185 22.3464 22.4185 21.7528 22.4185 21.1685C22.4373 20.5843 22.4467 19.9906 22.4467 19.3875C22.4467 17.8421 22.4185 16.2966 22.3619 14.7512C22.3054 13.2058 22.2488 11.6604 22.1923 10.1149C23.1912 10.0772 24.1712 10.0207 25.1324 9.9453C26.1124 9.86992 27.1113 9.81338 28.129 9.77568Z" fill="#333333"/>
<path d="M19.5629 12.8571C19.5629 13.5545 19.5157 14.2612 19.4215 14.9774C19.3461 15.6747 19.2613 16.3721 19.1671 17.0694C19.0163 18.2944 18.8467 19.51 18.6582 20.7162C18.4697 21.9036 18.2813 23.1097 18.0928 24.3348C17.1693 24.3536 16.2647 24.3913 15.3789 24.4479C14.4931 24.5044 13.5979 24.5704 12.6932 24.6457C12.6932 23.2699 12.6932 21.913 12.6932 20.5749C12.6932 19.2179 12.665 17.8609 12.6084 16.504C12.6084 16.2401 12.599 15.9009 12.5802 15.4863C12.5802 15.0716 12.5425 14.7324 12.4671 14.4685C12.354 14.0351 12.2126 13.7429 12.043 13.5922C11.8734 13.4225 11.5436 13.3377 11.0536 13.3377C10.7143 13.3377 10.3186 13.3754 9.86623 13.4508C9.41391 13.5262 8.95217 13.6204 8.481 13.7335C8.00984 13.8466 7.55752 13.9785 7.12404 14.1293C6.70942 14.2612 6.36075 14.4026 6.07805 14.5533C5.92728 16.0799 5.73881 17.5971 5.51265 19.1048C5.30534 20.6126 5.17341 22.1391 5.11687 23.6846L1.1308 23.4867C0.923487 20.0943 0.725597 16.7207 0.53713 13.366C0.348664 9.99245 0.16962 6.60947 0 3.21707L6.2194 2.82129C6.18171 4.06517 6.14402 5.30905 6.10632 6.55293C6.06863 7.77797 6.03094 9.01242 5.99324 10.2563C6.35133 9.95476 6.75653 9.7286 7.20885 9.57782C7.66117 9.4082 8.12292 9.29512 8.59408 9.23858C9.0841 9.18204 9.57411 9.15377 10.0641 9.15377C10.5541 9.15377 11.0253 9.15377 11.4776 9.15377C12.1561 9.15377 12.9194 9.18204 13.7675 9.23858C14.6344 9.27628 15.4543 9.4082 16.227 9.63436C17.0185 9.84168 17.7159 10.1809 18.319 10.6521C18.9221 11.1233 19.3273 11.7829 19.5346 12.631C19.5534 12.6687 19.5629 12.7064 19.5629 12.7441C19.5629 12.7818 19.5629 12.8195 19.5629 12.8571Z" fill="#333333"/>
</svg>
